<svg width="57" height="59" viewBox="0 0 57 59" fill="none" xmlns="http://www.w3.org/2000/svg">
<path d="M0 27.3414V28.3414C0.625488 28.1204 1.29883 28 2 28C5.14511 28 7.72537 30.4202 7.97946 33.5C7.99306 33.3351 8 33.1684 8 33C8 29.6863 5.31348 27 2 27C1.29883 27 0.625488 27.1204 0 27.3414Z" fill="white"/>
<path d="M0 56V57C0 58.1046 0.895432 59 2 59H19.3413C19.2276 58.6783 19.1406 58.3441 19.0829 58H2C0.895432 58 0 57.1046 0 56Z" fill="white"/>
<path d="M19.0205 56.5002C19.2746 53.4203 21.8548 51 25 51C28.1451 51 30.7253 53.4202 30.9795 56.5C30.9931 56.3351 31 56.1684 31 56C31 52.6863 28.3135 50 25 50C21.6865 50 19 52.6863 19 56C19 56.1684 19.0069 56.3353 19.0205 56.5002Z" fill="white"/>
<path d="M30.917 58C30.8593 58.3441 30.7722 58.6783 30.6584 59H48C49.1046 59 50 58.1046 50 57V56C50 57.1046 49.1046 58 48 58H30.917Z" fill="white"/>
<path d="M50 40H51C54.3137 40 57 37.3137 57 34C57 33.8316 56.9931 33.6649 56.9795 33.5C56.7254 36.5798 54.1453 39 51 39H50V40Z" fill="white"/>
<path d="M30.999 6V8H48C49.1046 8 50 8.89543 50 10V27H51C54.3137 27 57 29.6863 57 33C57 36.3137 54.3137 39 51 39H50V56C50 57.1046 49.1046 58 48 58H30.6584C30.8796 57.3744 31 56.7013 31 56C31 52.6863 28.3135 50 25 50C21.6865 50 19 52.6863 19 56C19 56.7013 19.1201 57.3744 19.3413 58H2C0.89543 58 0 57.1046 0 56V38.6586C0.625488 38.8796 1.29883 39 2 39C5.31348 39 8 36.3137 8 33C8 29.6863 5.31348 27 2 27C1.29883 27 0.625488 27.1204 0 27.3414V10C0 8.89543 0.895431 8 2 8H18.999V6C18.999 2.68628 21.6855 0 24.999 0C28.3125 0 30.999 2.68628 30.999 6Z" fill="url(#paint0_linear_145_187)"/>
<mask id="mask0_145_187" style="mask-type:alpha" maskUnits="userSpaceOnUse" x="0" y="0" width="57" height="58">
<path d="M30.999 6V8H48C49.1046 8 50 8.89543 50 10V27H51C54.3137 27 57 29.6863 57 33C57 36.3137 54.3137 39 51 39H50V56C50 57.1046 49.1046 58 48 58H30.6584C30.8796 57.3744 31 56.7013 31 56C31 52.6863 28.3135 50 25 50C21.6865 50 19 52.6863 19 56C19 56.7013 19.1201 57.3744 19.3413 58H2C0.89543 58 0 57.1046 0 56V38.6586C0.625488 38.8796 1.29883 39 2 39C5.31348 39 8 36.3137 8 33C8 29.6863 5.31348 27 2 27C1.29883 27 0.625488 27.1204 0 27.3414V10C0 8.89543 0.895431 8 2 8H18.999V6C18.999 2.68628 21.6855 0 24.999 0C28.3125 0 30.999 2.68628 30.999 6Z" fill="black"/>
</mask>
<g mask="url(#mask0_145_187)">
<g filter="url(#filter0_f_145_187)">
<path d="M67 -10H-17V59H2C0.895508 59 0 58.1046 0 57V39.6586C0.625488 39.8796 1.29883 40 2 40C5.31348 40 8 37.3137 8 34C8 30.6863 5.31348 28 2 28C1.29883 28 0.625488 28.1204 0 28.3414V11C0 9.89545 0.895508 9 2 9H18.999V7C18.999 3.68628 21.6855 1 24.999 1C28.3125 1 30.999 3.68628 30.999 7V9H48C49.1045 9 50 9.89545 50 11V28H51C54.3137 28 57 30.6863 57 34C57 37.3137 54.3137 40 51 40H50V57C50 58.1046 49.1045 59 48 59H67V-10Z" fill="black" fill-opacity="0.5"/>
<path d="M30.6584 59C30.8796 58.3744 31 57.7013 31 57C31 53.6863 28.3135 51 25 51C21.6865 51 19 53.6863 19 57C19 57.7013 19.1201 58.3744 19.3413 59H30.6584Z" fill="black" fill-opacity="0.5"/>
</g>
</g>
<defs>
<filter id="filter0_f_145_187" x="-18" y="-11" width="86" height="71" filterUnits="userSpaceOnUse" color-interpolation-filters="sRGB">
<feFlood flood-opacity="0" result="BackgroundImageFix"/>
<feBlend mode="normal" in="SourceGraphic" in2="BackgroundImageFix" result="shape"/>
<feGaussianBlur stdDeviation="0.5" result="effect1_foregroundBlur_145_187"/>
</filter>
<linearGradient id="paint0_linear_145_187" x1="28.5" y1="0" x2="28.5" y2="58" gradientUnits="userSpaceOnUse">
<stop stop-opacity="0.2"/>
<stop offset="1" stop-opacity="0.1"/>
</linearGradient>
</defs>
</svg>
