<svg width="9" height="9" viewBox="0 0 9 9" fill="none" xmlns="http://www.w3.org/2000/svg">
<path d="M9 1.06066C9 0.474874 8.52513 0 7.93934 0V0C7.65804 0 7.38825 0.111748 7.18934 0.31066L4.5 3L1.81066 0.31066C1.61175 0.111748 1.34196 0 1.06066 0V0C0.474874 0 0 0.474874 0 1.06066V1.06066C0 1.34196 0.111748 1.61175 0.31066 1.81066L3 4.5L0.31066 7.18934C0.111748 7.38825 0 7.65804 0 7.93934V7.93934C0 8.52513 0.474874 9 1.06066 9V9C1.34196 9 1.61175 8.88825 1.81066 8.68934L4.5 6L7.18934 8.68934C7.38825 8.88825 7.65804 9 7.93934 9V9C8.52513 9 9 8.52513 9 7.93934V7.93934C9 7.65804 8.88825 7.38825 8.68934 7.18934L6 4.5L8.68934 1.81066C8.88825 1.61175 9 1.34196 9 1.06066V1.06066Z" fill="#777777"/>
</svg>
