<svg width="30" height="25" viewBox="0 0 30 25" fill="none" xmlns="http://www.w3.org/2000/svg">
<rect x="0.5" y="0.5" width="29" height="24" rx="1.5" fill="url(#paint0_linear_53_13)" stroke="#ADADAD"/>
<path fill-rule="evenodd" clip-rule="evenodd" d="M13.5 17L14 20H16L16.5 17L18.5 18.5L19.5 17.5L18 15.5L21 15V13L18 12.5L19.5 10.5L18.5 9.5L16.5 11L16 8H14L13.5 11L11.5 9.5L10.5 10.5L12 12.5L9 13V15L12 15.5L10.5 17.5L11.5 18.5L13.5 17ZM15 16C16.1046 16 17 15.1046 17 14C17 12.8954 16.1046 12 15 12C13.8954 12 13 12.8954 13 14C13 15.1046 13.8954 16 15 16Z" fill="white"/>
<path fill-rule="evenodd" clip-rule="evenodd" d="M13.5 16L14 19H16L16.5 16L18.5 17.5L19.5 16.5L18 14.5L21 14V12L18 11.5L19.5 9.5L18.5 8.5L16.5 10L16 7H14L13.5 10L11.5 8.5L10.5 9.5L12 11.5L9 12V14L12 14.5L10.5 16.5L11.5 17.5L13.5 16ZM15 15C16.1046 15 17 14.1046 17 13C17 11.8954 16.1046 11 15 11C13.8954 11 13 11.8954 13 13C13 14.1046 13.8954 15 15 15Z" fill="#4E7CD6"/>
<path d="M13.5656 16.3938L13.5 16L13.3418 16.1186C13.126 15.7993 13 15.4144 13 15C13 14.6357 13.0974 14.2942 13.2676 14C13.6134 14.5978 14.2597 15 15 15C15.7403 15 16.3866 14.5978 16.7324 14C16.9026 14.2942 17 14.6357 17 15C17 15.4144 16.874 15.7993 16.6582 16.1186L16.5 16L16.4344 16.3938C16.071 16.7677 15.5626 17 15 17C14.4374 17 13.929 16.7677 13.5656 16.3938Z" fill="#2F4A80"/>
<path d="M11.3571 17.3571L12 16.5L10.6667 16.2778L10.5 16.5L11.3571 17.3571Z" fill="#2F4A80"/>
<path d="M18.6429 17.3571L18 16.5L19.3333 16.2778L19.5 16.5L18.6429 17.3571Z" fill="#2F4A80"/>
<path d="M21 14V12L19.3333 11.7222L18 13.5L21 14Z" fill="#2F4A80"/>
<path d="M18.6429 10.6429L19.5 9.5L18.5 8.5L16.5 10L16 7H14L13.5 10L11.5 8.5L10.5 9.5L11.3571 10.6429L11.5 10.5L13.3418 11.8814C13.4083 11.7831 13.4832 11.691 13.5656 11.6062L14 9H16L16.4344 11.6062C16.5168 11.691 16.5917 11.7831 16.6582 11.8814L18.5 10.5L18.6429 10.6429Z" fill="#2F4A80"/>
<path d="M10.6667 11.7222L9 12V14L12 13.5L10.6667 11.7222Z" fill="#2F4A80"/>
<path fill-rule="evenodd" clip-rule="evenodd" d="M2 1C1.44772 1 1 1.44772 1 2V23C1 23.5523 1.44771 24 2 24H28C28.5523 24 29 23.5523 29 23V2C29 1.44772 28.5523 1 28 1H2ZM28 2H2V23H28V2Z" fill="url(#paint1_linear_53_13)"/>
<defs>
<linearGradient id="paint0_linear_53_13" x1="15" y1="1.5" x2="15" y2="24" gradientUnits="userSpaceOnUse">
<stop stop-color="#ECECEC"/>
<stop offset="1" stop-color="#FBFBFB"/>
</linearGradient>
<linearGradient id="paint1_linear_53_13" x1="15" y1="1" x2="15" y2="24" gradientUnits="userSpaceOnUse">
<stop stop-color="#EFEFEF"/>
<stop offset="1" stop-color="#FBFBFB"/>
</linearGradient>
</defs>
</svg>
