<svg width="57" height="58" viewBox="0 0 57 58" fill="none" xmlns="http://www.w3.org/2000/svg">
<g clip-path="url(#clip0_159_36)">
<path d="M0 50V51C0 52.1046 0.895432 53 2 53H48C49.1046 53 50 52.1046 50 51V50C50 51.1046 49.1046 52 48 52H2C0.895432 52 0 51.1046 0 50Z" fill="white"/>
<path d="M7 11H4V12H7V11Z" fill="white"/>
<path d="M11 11H8V12H11V11Z" fill="white"/>
<path d="M46 11H12V12H46V11Z" fill="white"/>
<path fill-rule="evenodd" clip-rule="evenodd" d="M1.72361 3.55279L0 7V50C0 51.1046 0.895432 52 2 52H48C49.1046 52 50 51.1046 50 50V9C50 7.89543 49.1046 7 48 7H19L17.2764 3.55279C17.107 3.214 16.7607 3 16.382 3H2.61803C2.23926 3 1.893 3.214 1.72361 3.55279ZM4 11H7V14H4V11ZM8 11H11V14H8V11ZM12 11H46V14H12V11Z" fill="url(#paint0_linear_159_36)"/>
<mask id="mask0_159_36" style="mask-type:alpha" maskUnits="userSpaceOnUse" x="0" y="3" width="50" height="49">
<path fill-rule="evenodd" clip-rule="evenodd" d="M1.72361 3.55279L0 7V50C0 51.1046 0.895432 52 2 52H48C49.1046 52 50 51.1046 50 50V9C50 7.89543 49.1046 7 48 7H19L17.2764 3.55279C17.107 3.214 16.7607 3 16.382 3H2.61803C2.23926 3 1.893 3.214 1.72361 3.55279ZM4 11H7V14H4V11ZM8 11H11V14H8V11ZM12 11H46V14H12V11Z" fill="black"/>
</mask>
<g mask="url(#mask0_159_36)">
<g filter="url(#filter0_f_159_36)">
<path d="M-17 -12H62V53H48C49.1046 53 50 52.1046 50 51V10C50 8.89543 49.1046 8 48 8H19L17.2764 4.55278C17.107 4.214 16.7607 4 16.382 4H2.61803C2.23927 4 1.893 4.214 1.72361 4.55278L0 8V51C0 52.1046 0.895432 53 2 53H-17V-12Z" fill="black" fill-opacity="0.5"/>
<path d="M4 12H7V15H4V12Z" fill="black" fill-opacity="0.5"/>
<path d="M8 12H11V15H8V12Z" fill="black" fill-opacity="0.5"/>
<path d="M12 12H46V15H12V12Z" fill="black" fill-opacity="0.5"/>
</g>
</g>
</g>
<defs>
<filter id="filter0_f_159_36" x="-18" y="-13" width="81" height="67" filterUnits="userSpaceOnUse" color-interpolation-filters="sRGB">
<feFlood flood-opacity="0" result="BackgroundImageFix"/>
<feBlend mode="normal" in="SourceGraphic" in2="BackgroundImageFix" result="shape"/>
<feGaussianBlur stdDeviation="0.5" result="effect1_foregroundBlur_159_36"/>
</filter>
<linearGradient id="paint0_linear_159_36" x1="25" y1="3" x2="25" y2="52" gradientUnits="userSpaceOnUse">
<stop stop-opacity="0.2"/>
<stop offset="1" stop-opacity="0.1"/>
</linearGradient>
<clipPath id="clip0_159_36">
<rect width="57" height="58" fill="white"/>
</clipPath>
</defs>
</svg>
